<svg width="24" height="24" viewBox="0 0 24 24" fill="none" xmlns="http://www.w3.org/2000/svg">
<path fill-rule="evenodd" clip-rule="evenodd" d="M12 3C16.9706 3 21 7.02943 21 12C21 16.9706 16.9706 21 12 21C7.02943 21 3 16.9706 3 12C3 7.02943 7.02943 3 12 3ZM17.7129 15.4889V8.80001L14.3682 12.1445L17.7129 15.4889ZM7.00162 15.6252H16.9986L13.9432 12.5698L12.7787 13.7342C12.7223 13.7905 12.6458 13.8221 12.5661 13.822H11.434C11.3945 13.8221 11.3554 13.8143 11.3189 13.7993C11.2824 13.7842 11.2492 13.7621 11.2213 13.7342L10.0568 12.5698L7.00148 15.6252H7.00162ZM6.28711 8.7998V15.4891L9.63177 12.1445L6.28711 8.7998ZM17.2877 8.37479H6.7125L11.5586 13.2209H12.4416L17.2877 8.37479Z" fill="white"/>
</svg>
