<svg width="40" height="40" viewBox="0 0 40 40" fill="none" xmlns="http://www.w3.org/2000/svg">
<g clip-path="url(#clip0_231_961)">
<path d="M20 24.1016C22.2652 24.1016 24.1016 22.2652 24.1016 20C24.1016 17.7348 22.2652 15.8984 20 15.8984C17.7348 15.8984 15.8984 17.7348 15.8984 20C15.8984 22.2652 17.7348 24.1016 20 24.1016Z" fill="white"/>
<path d="M20 0.46875C9.2132 0.46875 0.46875 9.2132 0.46875 20C0.46875 30.7868 9.2132 39.5312 20 39.5312C30.7868 39.5312 39.5312 30.7868 39.5312 20C39.5312 9.2132 30.7868 0.46875 20 0.46875ZM32.067 24.9641C31.9733 26.8209 31.4515 28.652 30.0983 29.9909C28.732 31.3424 26.8922 31.846 25.0174 31.9388H14.9827C13.1077 31.846 11.2681 31.3427 9.9018 29.9909C8.54852 28.652 8.0268 26.8209 7.93305 24.9641V15.0359C8.0268 13.1791 8.54859 11.348 9.9018 10.0091C11.2681 8.6575 13.1079 8.15391 14.9827 8.06117H25.0173C26.8923 8.15391 28.7319 8.65727 30.0982 10.0091C31.4515 11.348 31.9732 13.1791 32.067 15.0359L32.067 24.9641Z" fill="white"/>
<path d="M24.8916 10.3237C22.4473 10.2567 17.5551 10.2567 15.1109 10.3237C13.839 10.3586 12.397 10.6753 11.4908 11.6432C10.5491 12.6494 10.1932 13.865 10.1571 15.225C10.0937 17.6118 10.1571 24.7759 10.1571 24.7759C10.1984 26.1357 10.5491 27.3514 11.4908 28.3576C12.397 29.3259 13.839 29.6422 15.1109 29.6771C17.5551 29.7442 22.4473 29.7442 24.8916 29.6771C26.1635 29.6422 27.6055 29.3256 28.5117 28.3576C29.4534 27.3514 29.8093 26.1358 29.8454 24.7759V15.225C29.8093 13.865 29.4534 12.6494 28.5117 11.6432C27.6051 10.675 26.1632 10.3586 24.8916 10.3237ZM20.0009 26.3579C18.7435 26.3579 17.5144 25.985 16.4689 25.2864C15.4235 24.5879 14.6086 23.595 14.1274 22.4333C13.6463 21.2716 13.5204 19.9934 13.7657 18.7602C14.011 17.5269 14.6165 16.3942 15.5056 15.5051C16.3947 14.616 17.5274 14.0105 18.7607 13.7652C19.9939 13.5199 21.2721 13.6458 22.4338 14.1269C23.5955 14.6081 24.5884 15.423 25.2869 16.4684C25.9855 17.5139 26.3584 18.7431 26.3584 20.0004C26.3584 21.6865 25.6886 23.3036 24.4963 24.4958C23.3041 25.6881 21.687 26.3579 20.0009 26.3579ZM26.3854 14.9553C26.1339 14.9552 25.8881 14.8806 25.6791 14.7408C25.47 14.6011 25.3071 14.4025 25.2109 14.1701C25.1147 13.9378 25.0896 13.6822 25.1387 13.4355C25.1878 13.1889 25.3089 12.9624 25.4867 12.7846C25.6646 12.6068 25.8911 12.4857 26.1378 12.4367C26.3844 12.3877 26.64 12.4129 26.8723 12.5091C27.1047 12.6054 27.3032 12.7683 27.4429 12.9774C27.5826 13.1865 27.6572 13.4323 27.6572 13.6838C27.6572 13.8508 27.6243 14.0162 27.5604 14.1704C27.4964 14.3247 27.4028 14.4649 27.2847 14.583C27.1666 14.701 27.0264 14.7947 26.8721 14.8586C26.7178 14.9225 26.5524 14.9553 26.3854 14.9553Z" fill="white"/>
</g>
<defs>
<clipPath id="clip0_231_961">
<rect width="40" height="40" fill="white"/>
</clipPath>
</defs>
</svg>
