<svg width="24" height="24" viewBox="0 0 24 24" fill="none" xmlns="http://www.w3.org/2000/svg">
<g clip-path="url(#clip0_8_1062)">
<path d="M23.1787 6.49486L17.0644 0.141469C16.9773 0.0510937 16.8572 0 16.7318 0H7.61882C6.59896 0 5.76923 0.829406 5.76923 1.84884V8.3077H2.07609C1.31306 8.3077 0.692291 8.92828 0.692291 9.69113V16.6166C0.692291 17.3794 1.31306 18 2.07609 18H5.76923V22.1544C5.76923 23.172 6.59896 24 7.61882 24H21.4581C22.478 24 23.3077 23.1725 23.3077 22.1554V6.81492C23.3077 6.69558 23.2614 6.58088 23.1787 6.49486ZM16.8462 1.24598L21.8655 6.46153H16.8462V1.24598ZM2.07609 17.0769C1.82203 17.0769 1.6154 16.8705 1.6154 16.6166V9.69113C1.6154 9.4373 1.82207 9.23077 2.07609 9.23077H14.5393C14.7934 9.23077 15 9.4373 15 9.69113V16.6166C15 16.8705 14.7933 17.0769 14.5393 17.0769H2.07609ZM22.3846 22.1554C22.3846 22.6635 21.9689 23.0769 21.4581 23.0769H7.61882C7.10793 23.0769 6.69229 22.6631 6.69229 22.1544V18H14.5393C15.3023 18 15.9231 17.3794 15.9231 16.6166V9.69113C15.9231 8.92828 15.3023 8.3077 14.5393 8.3077H6.69229V1.84884C6.69229 1.33833 7.10793 0.923062 7.61882 0.923062H15.9231V6.92306C15.9231 7.17797 16.1297 7.38459 16.3846 7.38459H22.3846V22.1554Z" fill="#505050"/>
<path d="M6.21003 11.7138C6.0568 11.5146 5.86658 11.3852 5.63942 11.3257C5.49158 11.2861 5.17428 11.2662 4.68749 11.2662H3.40292V15.2308H4.20341V13.7353H4.72536C5.08775 13.7353 5.3645 13.7163 5.55561 13.6785C5.69624 13.6478 5.83461 13.5852 5.97074 13.4905C6.10686 13.3959 6.21908 13.2656 6.30744 13.0998C6.3958 12.9339 6.43995 12.7293 6.43995 12.4859C6.43991 12.1704 6.36327 11.913 6.21003 11.7138ZM5.52449 12.805C5.46411 12.8934 5.38072 12.9582 5.27431 12.9997C5.16791 13.0412 4.95702 13.0619 4.6415 13.0619H4.20341V11.9369H4.59013C4.8786 11.9369 5.0706 11.9459 5.16613 11.964C5.29592 11.9874 5.40322 12.046 5.48792 12.1398C5.57267 12.2335 5.61505 12.3525 5.61505 12.4967C5.6151 12.6139 5.58486 12.7166 5.52449 12.805Z" fill="#505050"/>
<path d="M10.2882 12.3493C10.2016 12.096 10.0754 11.8819 9.90955 11.707C9.74371 11.5322 9.54444 11.4105 9.31189 11.3419C9.13883 11.2915 8.8873 11.2662 8.55739 11.2662H7.09433V15.2308H8.60066C8.89635 15.2308 9.1325 15.2028 9.30917 15.1469C9.54538 15.0712 9.73288 14.9658 9.87167 14.8305C10.0556 14.652 10.1971 14.4186 10.2963 14.1301C10.3774 13.8939 10.418 13.6127 10.418 13.2864C10.418 12.915 10.3747 12.6026 10.2882 12.3493ZM9.50928 13.9773C9.45519 14.155 9.38535 14.2825 9.29971 14.36C9.21406 14.4375 9.10635 14.4925 8.97655 14.5249C8.87741 14.5502 8.71602 14.5628 8.49247 14.5628H7.89481V11.9369H8.25449C8.58078 11.9369 8.79988 11.9495 8.91163 11.9748C9.06125 12.0072 9.18477 12.0694 9.28213 12.1614C9.37949 12.2534 9.45519 12.3813 9.50928 12.5454C9.56338 12.7095 9.59042 12.9447 9.59042 13.2513C9.59042 13.5577 9.56338 13.7997 9.50928 13.9773Z" fill="#505050"/>
<path d="M13.82 11.9369V11.2662H11.1021V15.2308H11.9026V13.546H13.5577V12.8753H11.9026V11.9369H13.82Z" fill="#505050"/>
</g>
<defs>
<clipPath id="clip0_8_1062">
<rect width="24" height="24" fill="white"/>
</clipPath>
</defs>
</svg>
