<svg width="24" height="24" viewBox="0 0 24 24" fill="none" xmlns="http://www.w3.org/2000/svg">
<path d="M18.0095 5.98868C14.6896 2.66974 9.30763 2.67053 5.98868 5.99051C2.66974 9.31048 2.67053 14.6924 5.99051 18.0113C9.31049 21.3303 14.6924 21.3295 18.0113 18.0095C19.6053 16.415 20.5005 14.2527 20.5 11.9982C20.4995 9.74402 19.6037 7.58236 18.0095 5.98868ZM16.373 15.3404C16.3726 15.3408 16.3722 15.3412 16.3718 15.3415V15.3387L15.9411 15.7665C15.3842 16.3305 14.573 16.5626 13.802 16.3785C13.0252 16.1706 12.2867 15.8396 11.6147 15.3982C10.9902 14.9991 10.4116 14.5326 9.88915 14.007C9.40847 13.5299 8.97663 13.0059 8.59998 12.443C8.18799 11.8373 7.8619 11.1775 7.63098 10.4824C7.36625 9.66569 7.58562 8.76957 8.19765 8.16754L8.70198 7.66321C8.84219 7.52237 9.07003 7.52187 9.21085 7.66208C9.21121 7.66245 9.21161 7.66281 9.21198 7.66321L10.8043 9.25553C10.9451 9.39575 10.9456 9.62359 10.8054 9.7644C10.8051 9.76477 10.8047 9.76513 10.8043 9.76553L9.8693 10.7005C9.60102 10.9659 9.56728 11.3876 9.78998 11.6922C10.1281 12.1563 10.5024 12.593 10.9092 12.9984C11.3627 13.4539 11.8557 13.8682 12.3825 14.2366C12.6868 14.4489 13.0995 14.4131 13.3628 14.1516L14.2666 13.2336C14.4068 13.0927 14.6347 13.0922 14.7755 13.2324C14.7759 13.2328 14.7762 13.2332 14.7766 13.2336L16.3718 14.8316C16.5127 14.9717 16.5132 15.1995 16.373 15.3404Z" fill="white"/>
</svg>
