<svg width="24" height="24" viewBox="0 0 24 24" fill="none" xmlns="http://www.w3.org/2000/svg">
<path d="M10.9552 11.331C9.74982 11.0324 10.4096 9.98003 11.3861 9.99596C12.3338 10.0114 12.8162 11.0319 13.246 10.9793C13.6768 10.9262 14.0434 10.2685 13.3666 9.67987C12.7811 9.1704 12.0406 8.88937 10.9037 8.99456C10.0117 9.0769 9.16385 9.66234 9.06079 10.8035C8.95773 11.9457 10.2843 12.5252 11.3345 12.6836C12.0703 12.7941 13.0744 13.1574 12.4714 13.8597C11.9173 14.5057 10.8697 14.1062 10.594 13.9309C10.3183 13.7546 10.008 13.1224 9.4911 13.1574C8.9742 13.1925 8.7192 13.8852 9.35404 14.493C9.92248 15.037 10.543 15.3361 11.8684 15.2654C13.195 15.1948 14.3834 14.0005 13.918 12.8764C13.4532 11.7528 12.1612 11.6301 10.9552 11.331Z" fill="white"/>
<path d="M12 3.5C7.30587 3.5 3.5 7.30587 3.5 12C3.5 16.6941 7.30587 20.5 12 20.5C16.6941 20.5 20.5 16.6941 20.5 12C20.5 7.30587 16.6941 3.5 12 3.5ZM14.0512 16.5385C13.5688 16.5385 13.1183 16.3982 12.7363 16.1581C12.4903 16.2032 12.2375 16.2287 11.9777 16.2287C9.67525 16.2287 7.81056 14.3455 7.81056 12.0223C7.81056 11.7971 7.82809 11.5755 7.86209 11.3593C7.60869 10.9635 7.46153 10.4928 7.46153 9.9855C7.46153 8.5915 8.5745 7.46206 9.94884 7.46206C10.4498 7.46206 10.9157 7.61294 11.3073 7.87166C11.5256 7.83553 11.7498 7.81587 11.9788 7.81587C14.2807 7.81587 16.1464 9.69969 16.1464 12.0223C16.1464 12.2157 16.1321 12.4059 16.1071 12.5929C16.3802 12.9977 16.5385 13.4875 16.5385 14.0145C16.5385 15.4085 15.4255 16.5385 14.0512 16.5385Z" fill="white"/>
</svg>
